<?xml version="1.0" encoding="utf-8"?>
<!-- Generator: Adobe Illustrator 23.0.3, SVG Export Plug-In . SVG Version: 6.00 Build 0)  -->
<svg version="1.1" id="レイヤー_1" xmlns="http://www.w3.org/2000/svg" xmlns:xlink="http://www.w3.org/1999/xlink" x="0px"
	 y="0px" viewBox="0 0 155.819 38" enable-background="new 0 0 155.819 38" xml:space="preserve">
<g id="レイヤー_1のコピー">
	<g>
		<path fill="#FF0000" d="M9.852,5.249c-5.285,0-9.569,4.284-9.569,9.569s4.284,9.569,9.569,9.569c5.284,0,9.569-4.284,9.569-9.569
			C19.421,9.534,15.136,5.249,9.852,5.249 M8.902,14.86h4.516l-4.214,8.517v-2.384H7.486c-1.485,0-1.313-2.045-1.313-2.045
			S8.712,9.552,8.967,8.562c0.258-0.989,1.378-1.054,1.378-1.054h3.098l-1.614,6.149H8.902c0,0-0.495-0.041-0.495,0.559
			C8.407,14.841,8.902,14.86,8.902,14.86"/>
		<path fill="#FF0000" d="M22.394,14.947c0,8.057,8.759,8.215,8.759,8.215h9.431v-8.515h-4.272v4.615h-5.734
			c0,0-4.131-0.23-4.131-4.327c0-4.33,4.102-4.41,4.102-4.41h10.08V6.827h-9.334C31.296,6.827,22.394,6.246,22.394,14.947"/>
		<polyline fill="#FF0000" points="47.724,16.74 57.356,16.74 57.356,13.042 47.811,13.042 47.811,10.519 58.635,10.519 
			58.635,6.822 43.454,6.822 43.454,23.19 59.193,23.19 59.193,19.148 47.724,19.148 		"/>
		<polyline fill="#FF0000" points="73.817,15.879 65.875,6.827 61.66,6.827 61.66,23.162 66.132,23.162 66.132,13.758 
			73.787,23.179 77.917,23.179 77.917,6.85 73.817,6.85 		"/>
		<path fill="#FF0000" d="M116.337,12.323c0-5.103-4.816-5.502-4.816-5.502h-12.46v16.357h4.316v-5.78h4.273l4.244,5.78h5.39
			l-4.644-6.037C112.639,17.141,116.337,15.878,116.337,12.323 M110.518,13.757h-7.126v-3.498h7.012c0,0,1.834,0.173,1.834,1.663
			C112.237,13.757,110.518,13.757,110.518,13.757"/>
		<path fill="#FF0000" d="M128.408,15.148c-1.418,0-2.568,1.15-2.568,2.569c0,1.416,1.15,2.564,2.568,2.564
			c1.419,0,2.567-1.148,2.567-2.564C130.975,16.298,129.826,15.148,128.408,15.148"/>
		<path fill="#FF0000" d="M128.408,6.39c-2.75,0-9.464,1.807-9.464,9.463v7.325h4.161v-7.444c0,0-0.059-5.246,5.303-5.246
			c5.363,0,5.306,5.246,5.306,5.246v7.444h4.156v-7.325C137.87,8.197,131.161,6.39,128.408,6.39"/>
		<polyline fill="#FF0000" points="144.407,19.406 144.407,6.706 140.161,6.706 140.161,23.162 155.819,23.162 155.819,19.406 		"/>
		<polyline fill="#FF0000" points="84.892,16.74 94.527,16.74 94.527,13.042 84.976,13.042 84.976,10.519 95.803,10.519 
			95.803,6.822 80.62,6.822 80.62,23.19 96.362,23.19 96.362,19.148 84.892,19.148 		"/>
	</g>
</g>
<path display="none" fill="#666666" d="M106.24,31.11v1.143h-2.817v1.359h2.593v1.143h-2.593v1.675h2.943v1.143h-4.023V31.11H106.24
	z"/>
<path display="none" fill="#666666" d="M111.514,31.11v4.203c0,0.792-0.183,1.395-0.549,1.809s-0.899,0.621-1.602,0.621
	c-0.679,0-1.202-0.205-1.57-0.616c-0.369-0.411-0.554-0.988-0.554-1.732V31.11h1.125v4.194c0,0.414,0.087,0.733,0.261,0.958
	s0.42,0.338,0.738,0.338c0.336,0,0.591-0.105,0.765-0.315s0.261-0.516,0.261-0.918V31.11H111.514z"/>
<path display="none" fill="#666666" d="M112.594,37.572V31.11h2.674c0.51,0,0.916,0.166,1.219,0.499s0.455,0.779,0.455,1.337
	c0,0.504-0.139,0.918-0.414,1.242c-0.09,0.107-0.226,0.204-0.405,0.288c0.294,0.156,0.481,0.359,0.563,0.611
	s0.118,0.757,0.112,1.513c0.006,0.288,0.022,0.482,0.05,0.585c0.027,0.102,0.089,0.174,0.185,0.216v0.171h-1.224
	c-0.078-0.312-0.12-0.744-0.127-1.296c0-0.492-0.039-0.804-0.116-0.937c-0.108-0.191-0.357-0.287-0.747-0.287h-1.144v2.52H112.594z
	 M113.674,33.953h1.306c0.294,0,0.51-0.07,0.647-0.211c0.138-0.142,0.207-0.358,0.207-0.653c0-0.281-0.067-0.497-0.202-0.647
	s-0.326-0.226-0.571-0.226h-1.387V33.953z"/>
<path display="none" fill="#666666" d="M120.271,30.939c0.336,0,0.661,0.076,0.977,0.229c0.314,0.152,0.583,0.361,0.806,0.625
	c0.485,0.589,0.729,1.438,0.729,2.547c0,1.11-0.243,1.96-0.729,2.548c-0.469,0.569-1.074,0.854-1.818,0.854
	c-0.462,0-0.885-0.123-1.27-0.369c-0.384-0.246-0.681-0.585-0.891-1.017c-0.258-0.546-0.387-1.215-0.387-2.007
	c0-1.116,0.243-1.968,0.729-2.557C118.886,31.224,119.503,30.939,120.271,30.939z M120.253,32.081c-0.456,0-0.813,0.2-1.07,0.599
	c-0.259,0.399-0.388,0.946-0.388,1.643c0,0.714,0.128,1.272,0.383,1.674c0.255,0.402,0.607,0.604,1.058,0.604
	s0.803-0.203,1.058-0.607c0.255-0.405,0.382-0.965,0.382-1.679c0-0.786-0.161-1.374-0.485-1.765
	C120.943,32.238,120.631,32.081,120.253,32.081z"/>
<path display="none" fill="#666666" d="M124.771,35.232v2.34h-1.107V31.11h2.421c0.498,0,0.897,0.183,1.197,0.549
	s0.45,0.853,0.45,1.458c0,0.643-0.154,1.155-0.464,1.539c-0.309,0.384-0.718,0.576-1.229,0.576H124.771z M124.771,34.124h1.026
	c0.552,0,0.827-0.327,0.827-0.98c0-0.33-0.074-0.567-0.225-0.711c-0.15-0.145-0.399-0.217-0.747-0.217h-0.882V34.124z"/>
<path display="none" fill="#666666" d="M132.484,31.11v1.143h-2.817v1.359h2.593v1.143h-2.593v1.675h2.943v1.143h-4.023V31.11
	H132.484z"/>
<path display="none" fill="#666666" d="M139.036,36.159l0.963,1.413h-1.251l-0.359-0.549c-0.223,0.258-0.447,0.442-0.676,0.554
	c-0.228,0.11-0.495,0.166-0.801,0.166c-0.498,0-0.904-0.176-1.22-0.526c-0.314-0.351-0.472-0.803-0.472-1.354
	c0-0.72,0.339-1.332,1.017-1.836l0.117-0.081c-0.324-0.462-0.486-0.915-0.486-1.359c0-0.426,0.131-0.778,0.392-1.058
	c0.261-0.278,0.59-0.418,0.985-0.418c0.384,0,0.702,0.14,0.954,0.418c0.252,0.279,0.378,0.632,0.378,1.058
	c0,0.606-0.291,1.125-0.873,1.558l0.747,1.134c0.156-0.3,0.249-0.654,0.279-1.063h0.918c-0.036,0.427-0.098,0.779-0.185,1.058
	C139.377,35.551,139.234,35.847,139.036,36.159z M137.857,36.231l-0.973-1.485c-0.264,0.234-0.435,0.416-0.513,0.545
	s-0.117,0.292-0.117,0.49c0,0.258,0.072,0.473,0.217,0.644c0.144,0.171,0.323,0.257,0.539,0.257
	C137.281,36.681,137.563,36.531,137.857,36.231z M137.2,33.396c0.18-0.15,0.305-0.284,0.373-0.4c0.069-0.117,0.104-0.251,0.104-0.4
	c0-0.156-0.039-0.282-0.116-0.379c-0.078-0.096-0.184-0.144-0.315-0.144c-0.126,0-0.229,0.047-0.311,0.14s-0.121,0.215-0.121,0.364
	C136.813,32.775,136.942,33.048,137.2,33.396z"/>
<path display="none" fill="#666666" d="M147.072,33.225h-1.106c-0.066-0.276-0.153-0.504-0.262-0.685
	c-0.204-0.288-0.495-0.432-0.873-0.432c-0.426,0-0.759,0.199-0.999,0.599c-0.239,0.398-0.359,0.952-0.359,1.66
	c0,0.69,0.117,1.23,0.351,1.62c0.234,0.39,0.559,0.585,0.973,0.585c0.396,0,0.701-0.168,0.918-0.504
	c0.096-0.156,0.18-0.393,0.252-0.711h1.106c-0.072,0.378-0.149,0.678-0.233,0.899c-0.085,0.223-0.204,0.438-0.36,0.648
	c-0.414,0.558-0.981,0.837-1.701,0.837c-0.75,0-1.343-0.302-1.777-0.904c-0.436-0.604-0.652-1.43-0.652-2.479
	s0.221-1.883,0.661-2.498c0.441-0.614,1.04-0.922,1.796-0.922c0.42,0,0.796,0.099,1.129,0.297s0.602,0.48,0.806,0.846
	C146.913,32.4,147.024,32.781,147.072,33.225z"/>
<path display="none" fill="#666666" d="M149.467,31.11v6.462h-1.107V31.11H149.467z"/>
<path display="none" fill="#666666" d="M150.592,35.582h1.062c0.042,0.702,0.427,1.054,1.152,1.054c0.342,0,0.607-0.072,0.797-0.217
	c0.188-0.144,0.283-0.348,0.283-0.611c0-0.21-0.067-0.372-0.202-0.486c-0.136-0.114-0.389-0.225-0.761-0.333l-0.567-0.162
	c-0.618-0.174-1.029-0.366-1.232-0.576c-0.301-0.288-0.45-0.717-0.45-1.287c0-0.63,0.179-1.125,0.535-1.484
	c0.357-0.36,0.851-0.54,1.48-0.54c0.636,0,1.133,0.179,1.489,0.535c0.357,0.357,0.557,0.875,0.599,1.553h-1.062
	c-0.042-0.342-0.147-0.591-0.315-0.747s-0.417-0.234-0.747-0.234c-0.294,0-0.524,0.071-0.692,0.212s-0.252,0.332-0.252,0.571
	c0,0.187,0.042,0.329,0.126,0.428s0.228,0.182,0.432,0.247l1.296,0.388c0.492,0.149,0.846,0.359,1.063,0.63
	c0.216,0.27,0.323,0.645,0.323,1.125c0,0.647-0.191,1.159-0.575,1.534c-0.385,0.375-0.909,0.563-1.575,0.563
	c-0.954,0-1.608-0.351-1.962-1.053C150.69,36.396,150.609,36.027,150.592,35.582z"/>
<g display="none">
	<path display="inline" fill="#666666" d="M134.534,37.988c-0.864-0.252-1.584-0.513-2.395-0.854
		c-0.135-0.055-0.279-0.081-0.423-0.091c-1.368-0.09-2.646-1.098-2.646-3.078c0-1.819,1.152-3.188,2.962-3.188
		c1.854,0,2.871,1.404,2.871,3.062c0,1.377-0.639,2.35-1.44,2.709v0.036c0.469,0.136,0.99,0.243,1.468,0.343L134.534,37.988z
		 M133.454,33.892c0-1.107-0.522-2.025-1.458-2.025c-0.937,0-1.477,0.918-1.477,2.052c-0.009,1.152,0.549,2.035,1.468,2.035
		C132.913,35.953,133.454,35.08,133.454,33.892z"/>
	<path display="inline" fill="#666666" d="M137.071,35.386l-0.433,1.558h-1.422l1.854-6.067h1.801l1.881,6.067h-1.477l-0.468-1.558
		H137.071z M138.61,34.36l-0.378-1.287c-0.108-0.36-0.216-0.811-0.306-1.17h-0.019c-0.09,0.359-0.18,0.818-0.279,1.17l-0.359,1.287
		H138.61z"/>
	<path display="inline" fill="#666666" d="M142.164,32.029h-1.63v-1.152h4.664v1.152h-1.657v4.915h-1.377V32.029z"/>
	<path display="inline" fill="#666666" d="M146.871,35.386l-0.433,1.558h-1.422l1.854-6.067h1.801l1.881,6.067h-1.477l-0.468-1.558
		H146.871z M148.411,34.36l-0.378-1.287c-0.108-0.36-0.216-0.811-0.306-1.17h-0.019c-0.09,0.359-0.18,0.818-0.279,1.17l-0.359,1.287
		H148.411z"/>
	<path display="inline" fill="#666666" d="M151.182,30.957c0.441-0.072,1.099-0.127,1.828-0.127c0.9,0,1.53,0.136,1.963,0.478
		c0.359,0.288,0.558,0.711,0.558,1.27c0,0.774-0.549,1.306-1.071,1.494v0.027c0.423,0.171,0.657,0.576,0.811,1.134
		c0.188,0.685,0.378,1.477,0.495,1.711h-1.404c-0.1-0.171-0.243-0.666-0.424-1.413c-0.162-0.757-0.423-0.964-0.98-0.973h-0.415
		v2.386h-1.359V30.957z M152.541,33.568h0.541c0.684,0,1.089-0.342,1.089-0.873c0-0.559-0.378-0.838-1.008-0.847
		c-0.334,0-0.522,0.027-0.622,0.045V33.568z"/>
</g>
<g display="none">
	<path display="inline" fill="#666666" d="M96.687,24.558v6.462h-1.025v-5.481l-1.008,5.481h-1.09l-0.98-5.481v5.481h-1.026v-6.462
		h1.611l0.972,5.13l0.954-5.13H96.687z"/>
	<path display="inline" fill="#666666" d="M98.874,29.688l-0.368,1.332h-1.171l1.891-6.462h1.277l1.872,6.462h-1.206l-0.342-1.332
		H98.874z M99.855,25.988l-0.684,2.592h1.35L99.855,25.988z"/>
	<path display="inline" fill="#666666" d="M104.094,24.558v6.462h-1.107v-6.462H104.094z"/>
	<path display="inline" fill="#666666" d="M108.369,29.094v-4.536h1.026v6.462h-1.099l-2.187-4.635v4.635h-1.026v-6.462h1.161
		L108.369,29.094z"/>
	<path display="inline" fill="#666666" d="M111.563,24.558v5.292h2.637v1.17h-3.744v-6.462H111.563z"/>
	<path display="inline" fill="#666666" d="M116.234,29.688l-0.368,1.332h-1.171l1.891-6.462h1.277l1.872,6.462h-1.206l-0.342-1.332
		H116.234z M117.216,25.988l-0.684,2.592h1.35L117.216,25.988z"/>
	<path display="inline" fill="#666666" d="M123.678,29.094v-4.536h1.026v6.462h-1.099l-2.187-4.635v4.635h-1.026v-6.462h1.161
		L123.678,29.094z"/>
	<path display="inline" fill="#666666" d="M125.766,31.02v-6.462h2.341c0.684,0,1.215,0.271,1.593,0.814s0.566,1.304,0.566,2.281
		c0,1.152-0.252,2.049-0.756,2.691c-0.366,0.45-0.849,0.675-1.449,0.675H125.766z M126.846,25.664v4.248h1.08
		c0.384,0,0.683-0.194,0.896-0.585c0.213-0.39,0.319-0.936,0.319-1.638c0-0.78-0.138-1.341-0.414-1.683
		c-0.191-0.229-0.465-0.343-0.818-0.343H126.846z"/>
	<path display="inline" fill="#666666" d="M137.637,26.673h-1.106c-0.066-0.276-0.153-0.504-0.262-0.685
		c-0.204-0.288-0.495-0.432-0.873-0.432c-0.426,0-0.759,0.199-0.999,0.599c-0.239,0.398-0.359,0.952-0.359,1.66
		c0,0.69,0.117,1.23,0.351,1.62c0.234,0.39,0.559,0.585,0.973,0.585c0.396,0,0.701-0.168,0.918-0.504
		c0.096-0.156,0.18-0.393,0.252-0.711h1.106c-0.072,0.378-0.149,0.678-0.233,0.899c-0.085,0.223-0.204,0.438-0.36,0.648
		c-0.414,0.558-0.981,0.837-1.701,0.837c-0.75,0-1.343-0.302-1.777-0.904c-0.436-0.604-0.652-1.43-0.652-2.479
		s0.221-1.883,0.661-2.498c0.441-0.614,1.04-0.922,1.796-0.922c0.42,0,0.796,0.099,1.129,0.297s0.602,0.48,0.806,0.846
		C137.478,25.848,137.589,26.229,137.637,26.673z"/>
	<path display="inline" fill="#666666" d="M141.624,28.112h-2.07v2.907h-1.106v-6.462h1.106v2.448h2.07v-2.448h1.106v6.462h-1.106
		V28.112z"/>
	<path display="inline" fill="#666666" d="M144.827,24.558v6.462h-1.107v-6.462H144.827z"/>
	<path display="inline" fill="#666666" d="M149.103,29.094v-4.536h1.026v6.462h-1.099l-2.187-4.635v4.635h-1.026v-6.462h1.161
		L149.103,29.094z"/>
	<path display="inline" fill="#666666" d="M152.314,29.688l-0.368,1.332h-1.171l1.891-6.462h1.277l1.872,6.462h-1.206l-0.342-1.332
		H152.314z M153.296,25.988l-0.684,2.592h1.35L153.296,25.988z"/>
</g>
<path display="none" fill="#666666" d="M128.195,35.203v-1.099h2.223v3.483h-0.737l-0.117-0.81
	c-0.187,0.264-0.349,0.453-0.486,0.566c-0.312,0.276-0.702,0.414-1.17,0.414c-0.726,0-1.313-0.309-1.76-0.927
	c-0.446-0.618-0.67-1.428-0.67-2.43c0-1.057,0.233-1.895,0.702-2.516c0.468-0.621,1.098-0.932,1.89-0.932
	c0.912,0,1.581,0.375,2.007,1.125c0.162,0.282,0.271,0.633,0.324,1.053h-1.116c-0.054-0.312-0.192-0.568-0.414-0.77
	s-0.479-0.302-0.773-0.302c-0.463,0-0.827,0.211-1.094,0.63c-0.268,0.421-0.4,0.99-0.4,1.711c0,0.701,0.13,1.246,0.392,1.633
	c0.261,0.388,0.628,0.581,1.103,0.581c0.348,0,0.642-0.129,0.882-0.388c0.198-0.21,0.351-0.552,0.459-1.025H128.195z"/>
<path display="none" fill="#666666" d="M132.561,31.126v5.292h2.637v1.17h-3.744v-6.462H132.561z"/>
<path display="none" fill="#666666" d="M138.177,30.955c0.336,0,0.661,0.076,0.977,0.229c0.314,0.152,0.583,0.361,0.806,0.625
	c0.485,0.589,0.729,1.438,0.729,2.547c0,1.11-0.243,1.96-0.729,2.548c-0.469,0.569-1.074,0.854-1.818,0.854
	c-0.462,0-0.885-0.123-1.27-0.369c-0.384-0.246-0.681-0.585-0.891-1.017c-0.258-0.546-0.387-1.215-0.387-2.007
	c0-1.116,0.243-1.968,0.729-2.557C136.791,31.241,137.408,30.955,138.177,30.955z M138.158,32.098c-0.456,0-0.813,0.2-1.07,0.599
	c-0.259,0.399-0.388,0.946-0.388,1.643c0,0.714,0.128,1.272,0.383,1.674c0.255,0.402,0.607,0.604,1.058,0.604
	s0.803-0.203,1.058-0.607c0.255-0.405,0.382-0.965,0.382-1.679c0-0.786-0.161-1.374-0.485-1.765
	C138.849,32.254,138.536,32.098,138.158,32.098z"/>
<path display="none" fill="#666666" d="M141.568,37.588v-6.462h2.574c0.51,0,0.91,0.15,1.202,0.45c0.29,0.3,0.436,0.711,0.436,1.232
	c0,0.318-0.051,0.579-0.152,0.783c-0.103,0.204-0.268,0.375-0.495,0.513c0.288,0.156,0.495,0.357,0.621,0.604
	c0.132,0.264,0.198,0.576,0.198,0.936c0,0.54-0.153,0.996-0.459,1.368c-0.187,0.223-0.398,0.374-0.635,0.455
	c-0.237,0.081-0.587,0.121-1.049,0.121H141.568z M142.631,32.233v1.423h1.296c0.252,0,0.447-0.063,0.585-0.189
	s0.207-0.309,0.207-0.549c0-0.456-0.273-0.685-0.819-0.685H142.631z M142.631,34.753v1.728h1.358c0.57,0,0.855-0.306,0.855-0.918
	c0-0.258-0.07-0.457-0.212-0.598c-0.141-0.142-0.337-0.212-0.589-0.212H142.631z"/>
<path display="none" fill="#666666" d="M147.868,36.256l-0.368,1.332h-1.171l1.891-6.462h1.277l1.872,6.462h-1.206l-0.342-1.332
	H147.868z M148.85,32.557l-0.684,2.592h1.35L148.85,32.557z"/>
<path display="none" fill="#666666" d="M153.179,31.126v5.292h2.637v1.17h-3.744v-6.462H153.179z"/>
<g display="none">
	<path display="inline" fill="#666666" d="M121.935,36.914l-1.944-6.067h1.504l0.737,2.565c0.207,0.72,0.396,1.413,0.541,2.17h0.026
		c0.153-0.729,0.343-1.45,0.55-2.143l0.773-2.593h1.459l-2.044,6.067H121.935z"/>
	<path display="inline" fill="#666666" d="M127.604,30.847v6.067h-1.378v-6.067H127.604z"/>
	<path display="inline" fill="#666666" d="M132.042,34.349h-2.232v1.44h2.493v1.125h-3.871v-6.067h3.745v1.125h-2.367v1.261h2.232
		V34.349z"/>
	<path display="inline" fill="#666666" d="M134.273,31.999h-1.63v-1.152h4.664v1.152h-1.657v4.915h-1.377V31.999z"/>
	<path display="inline" fill="#666666" d="M137.854,36.914v-6.067h1.603l1.261,2.224c0.36,0.639,0.72,1.396,0.99,2.079h0.027
		c-0.09-0.801-0.117-1.62-0.117-2.529v-1.773h1.261v6.067h-1.441l-1.296-2.341c-0.36-0.648-0.756-1.432-1.054-2.143l-0.026,0.009
		c0.036,0.802,0.054,1.657,0.054,2.647v1.827H137.854z"/>
	<path display="inline" fill="#666666" d="M145.118,35.357l-0.433,1.558h-1.422l1.854-6.067h1.801l1.881,6.067h-1.477l-0.468-1.558
		H145.118z M146.657,34.33l-0.378-1.287c-0.108-0.36-0.216-0.811-0.306-1.171h-0.019c-0.09,0.36-0.18,0.819-0.279,1.171
		l-0.359,1.287H146.657z"/>
	<path display="inline" fill="#666666" d="M154.38,34.592c-0.027-0.729-0.054-1.612-0.054-2.494h-0.027
		c-0.188,0.774-0.441,1.639-0.675,2.35l-0.738,2.368h-1.071l-0.648-2.35c-0.198-0.712-0.405-1.576-0.549-2.368h-0.019
		c-0.036,0.819-0.063,1.756-0.107,2.512l-0.108,2.305h-1.27l0.388-6.067h1.827l0.594,2.025c0.189,0.702,0.379,1.458,0.514,2.17
		h0.027c0.171-0.703,0.378-1.504,0.576-2.179l0.647-2.017h1.792l0.333,6.067h-1.342L154.38,34.592z"/>
</g>
<g>
	<path fill="#666666" d="M135.197,30.844v6.067h-1.378v-6.067H135.197z"/>
	<path fill="#666666" d="M136.384,36.911v-6.067h1.603l1.261,2.224c0.36,0.639,0.72,1.396,0.99,2.079h0.027
		c-0.09-0.801-0.117-1.62-0.117-2.529v-1.773h1.261v6.067h-1.441l-1.296-2.341c-0.36-0.648-0.756-1.432-1.054-2.143l-0.026,0.009
		c0.036,0.802,0.054,1.657,0.054,2.647v1.827H136.384z"/>
	<path fill="#666666" d="M142.414,30.925c0.505-0.081,1.162-0.127,1.855-0.127c1.152,0,1.899,0.208,2.484,0.648
		c0.63,0.469,1.026,1.216,1.026,2.287c0,1.161-0.423,1.962-1.009,2.458c-0.639,0.53-1.611,0.783-2.8,0.783
		c-0.711,0-1.215-0.046-1.558-0.091V30.925z M143.792,35.876c0.117,0.026,0.306,0.026,0.478,0.026
		c1.242,0.01,2.052-0.675,2.052-2.124c0.01-1.261-0.729-1.927-1.908-1.927c-0.306,0-0.504,0.027-0.621,0.054V35.876z"/>
	<path fill="#666666" d="M149.696,30.844v6.067h-1.378v-6.067H149.696z"/>
	<path fill="#666666" d="M152.117,35.354l-0.433,1.558h-1.422l1.854-6.067h1.801l1.881,6.067h-1.477l-0.468-1.558H152.117z
		 M153.656,34.327l-0.378-1.287c-0.108-0.36-0.216-0.811-0.306-1.171h-0.019c-0.09,0.36-0.18,0.819-0.279,1.171l-0.359,1.287
		H153.656z"/>
</g>
</svg>
