<svg width="1465" height="480" fill="none" xmlns="http://www.w3.org/2000/svg"><g opacity=".8" fill="#fff"><path d="M592.74 440.18c0 1.43-.1 2.92-.3 4.47-.2 1.55-.51 3.1-.94 4.65a30.24 30.24 0 0 1-1.67 4.57c-.68 1.5-1.51 2.92-2.49 4.27-.98 1.35-2.11 2.6-3.4 3.74a20.95 20.95 0 0 1-4.4 2.97c-1.65.83-3.48 1.48-5.51 1.95-2.02.46-4.45.69-7.29.69h-9.46c-.29 0-.56-.04-.81-.12-.25-.08-.47-.2-.64-.38-.18-.17-.3-.41-.36-.71-.07-.3-.04-.66.07-1.1l7.58-38.05c.15-.86.49-1.46 1.01-1.8.52-.34 1.1-.51 1.76-.51h9c3.28 0 5.99.35 8.15 1.04 2.15.69 3.95 1.7 5.39 3.02 1.44 1.32 2.52 2.93 3.23 4.83.73 1.9 1.08 4.06 1.08 6.47zm-6 .5c0-1.63-.23-3.12-.68-4.49a8.876 8.876 0 0 0-2.13-3.51c-.97-.98-2.2-1.75-3.71-2.31-1.51-.56-3.5-.84-5.99-.84h-5.94l-6.63 33.21h5.87c2.68 0 4.92-.32 6.73-.97 1.8-.65 3.4-1.53 4.78-2.64 1.38-1.11 2.56-2.4 3.53-3.88.97-1.47 1.76-3.02 2.37-4.65.62-1.63 1.07-3.29 1.35-5 .31-1.69.45-3.34.45-4.92zM624.53 443.05c0 1.52-.35 2.88-1.05 4.09-.7 1.21-1.8 2.24-3.3 3.1-1.5.86-3.41 1.52-5.74 1.98-2.33.46-5.12.69-8.38.69h-3.5c-.15.73-.26 1.43-.31 2.11-.06.68-.08 1.32-.08 1.91 0 2.2.54 3.88 1.63 5.05 1.09 1.17 2.85 1.75 5.29 1.75 1.41 0 2.67-.1 3.79-.31s2.09-.43 2.92-.68c.82-.24 1.5-.47 2.03-.68.53-.21.89-.31 1.09-.31.2 0 .35.07.45.21.1.14.15.35.15.61 0 .22-.02.48-.07.79-.04.31-.11.62-.2.94-.09.32-.2.62-.35.91-.14.29-.3.53-.48.73-.26.26-.73.52-1.4.77-.67.25-1.47.48-2.39.69-.92.21-1.94.38-3.03.51-1.09.13-2.2.2-3.3.2-1.96 0-3.67-.22-5.14-.66-1.47-.44-2.7-1.12-3.68-2.03-.98-.91-1.71-2.05-2.19-3.41-.48-1.36-.73-2.97-.73-4.82 0-1.43.14-2.96.41-4.6.27-1.64.71-3.26 1.3-4.86.59-1.6 1.36-3.14 2.31-4.62.94-1.47 2.07-2.77 3.38-3.89s2.82-2.02 4.53-2.7c1.71-.68 3.65-1.02 5.8-1.02 1.85 0 3.41.23 4.7.69 1.29.46 2.34 1.06 3.17 1.78.82.73 1.42 1.53 1.8 2.42.38.89.57 1.78.57 2.66zm-5.57.5c0-1.12-.44-2.03-1.32-2.72-.88-.69-2.13-1.04-3.76-1.04-1.43 0-2.69.25-3.79.74a9.79 9.79 0 0 0-2.92 2c-.85.84-1.57 1.81-2.18 2.92a19.41 19.41 0 0 0-1.47 3.51h3.36c2.31 0 4.24-.14 5.79-.43 1.55-.29 2.79-.68 3.73-1.17.93-.5 1.59-1.07 1.98-1.73.39-.66.58-1.36.58-2.08zM633.87 466.671c-.04.18-.12.32-.23.45-.11.13-.28.23-.49.31-.22.09-.51.15-.87.2-.36.04-.81.07-1.34.07-.55 0-1-.02-1.33-.07-.34-.04-.61-.11-.79-.2-.19-.09-.31-.19-.36-.31-.06-.12-.06-.27-.02-.45l8.77-44.06c.04-.18.12-.33.21-.46.1-.13.26-.24.49-.33.23-.09.53-.15.89-.2.36-.04.82-.07 1.37-.07.53 0 .96.02 1.3.07.34.05.6.11.79.2.19.09.3.2.35.33.05.13.05.29.03.46l-8.77 44.06zM649.36 466.67c-.04.18-.12.32-.23.45-.11.13-.28.23-.49.31-.22.09-.51.15-.87.2-.36.04-.81.07-1.34.07-.55 0-1-.02-1.33-.07-.34-.04-.61-.11-.79-.2-.19-.09-.31-.19-.36-.31-.06-.12-.06-.27-.02-.45l5.9-29.68c.02-.15.09-.3.2-.43.11-.13.27-.24.49-.33.22-.09.51-.15.87-.2.36-.04.82-.07 1.37-.07.53 0 .96.02 1.3.07.34.05.6.11.79.2.19.09.31.2.36.33.05.13.07.28.05.43l-5.9 29.68zm8.54-39.68c-.11.62-.26 1.13-.44 1.55-.19.42-.43.75-.74 1.01-.31.25-.69.43-1.15.54-.46.11-1.02.17-1.68.17-.64 0-1.17-.05-1.58-.17-.42-.11-.73-.29-.92-.54-.2-.25-.31-.59-.33-1.01-.02-.42.02-.93.13-1.55.13-.62.3-1.13.49-1.53.2-.41.45-.75.74-1.02.3-.27.68-.46 1.14-.56.46-.1 1.02-.15 1.68-.15.64 0 1.16.05 1.57.15.41.1.71.29.92.56.21.28.32.62.35 1.02.01.41-.04.92-.18 1.53zM687.98 436.721c0 .22-.03.45-.1.68-.07.23-.14.47-.23.71-.81 2.4-1.73 4.82-2.75 7.27a100.09 100.09 0 0 1-3.4 7.32c-1.24 2.43-2.6 4.81-4.09 7.16-1.48 2.34-3.11 4.6-4.86 6.78-.15.24-.33.43-.53.56-.2.13-.43.24-.71.31-.28.08-.59.13-.94.15-.35.02-.77.03-1.25.03-.68 0-1.23-.02-1.65-.07-.42-.05-.74-.11-.97-.2-.23-.09-.4-.21-.49-.36-.1-.15-.16-.34-.18-.56l-4.39-28.13c-.02-.24-.04-.46-.05-.64-.01-.19-.02-.36-.02-.51 0-.29.04-.5.13-.66.09-.15.23-.27.43-.36.2-.09.47-.15.81-.18.34-.03.8-.05 1.37-.05.57 0 1.03.02 1.38.05.35.03.62.09.81.17a.7.7 0 0 1 .38.33c.07.14.11.31.13.51l3.56 24.47v.4l.17-.2c1.3-1.96 2.48-3.85 3.56-5.69 1.08-1.83 2.08-3.73 3-5.69.92-1.96 1.8-4.01 2.62-6.17.82-2.15 1.67-4.53 2.52-7.12.07-.2.16-.37.28-.51.12-.14.3-.25.53-.33.23-.08.54-.13.92-.17.38-.03.86-.05 1.43-.05.53 0 .96.02 1.29.05.33.03.59.08.77.13.18.05.32.13.4.23.08.09.12.21.12.34zM717.89 443.05c0 1.52-.35 2.88-1.05 4.09-.7 1.21-1.8 2.24-3.3 3.1-1.5.86-3.41 1.52-5.74 1.98-2.33.46-5.12.69-8.38.69h-3.5c-.15.73-.26 1.43-.31 2.11-.05.68-.08 1.32-.08 1.91 0 2.2.54 3.88 1.63 5.05 1.09 1.17 2.85 1.75 5.29 1.75 1.41 0 2.67-.1 3.79-.31s2.09-.43 2.92-.68c.82-.24 1.5-.47 2.03-.68.53-.21.89-.31 1.09-.31.2 0 .35.07.45.21.1.14.15.35.15.61 0 .22-.02.48-.07.79-.04.31-.11.62-.2.94-.09.32-.2.62-.35.91-.14.29-.3.53-.48.73-.26.26-.73.52-1.4.77-.67.25-1.47.48-2.39.69-.92.21-1.93.38-3.03.51-1.1.13-2.2.2-3.3.2-1.96 0-3.67-.22-5.14-.66-1.47-.44-2.7-1.12-3.68-2.03-.98-.91-1.71-2.05-2.19-3.41-.48-1.36-.73-2.97-.73-4.82 0-1.43.14-2.96.41-4.6.27-1.64.71-3.26 1.3-4.86.59-1.6 1.36-3.14 2.31-4.62.94-1.47 2.07-2.77 3.38-3.89s2.82-2.02 4.53-2.7c1.71-.68 3.65-1.02 5.8-1.02 1.85 0 3.41.23 4.7.69 1.29.46 2.34 1.06 3.17 1.78.83.72 1.42 1.53 1.8 2.42.38.89.57 1.78.57 2.66zm-5.57.5c0-1.12-.44-2.03-1.32-2.72-.88-.69-2.13-1.04-3.76-1.04-1.43 0-2.69.25-3.79.74a9.79 9.79 0 0 0-2.92 2c-.85.84-1.57 1.81-2.18 2.92-.61 1.11-1.09 2.28-1.47 3.51h3.36c2.31 0 4.24-.14 5.79-.43 1.55-.29 2.79-.68 3.73-1.17.93-.5 1.59-1.07 1.98-1.73.39-.66.58-1.36.58-2.08zM744.5 437.02c0 .09-.02.26-.05.51-.03.25-.07.54-.12.87-.05.33-.11.67-.2 1.02-.09.35-.2.68-.33.97-.13.29-.27.54-.41.74-.14.2-.3.3-.48.3s-.37-.04-.58-.12c-.21-.08-.44-.17-.69-.28-.25-.11-.54-.2-.87-.28-.33-.08-.71-.12-1.15-.12-.75 0-1.61.32-2.59.97-.98.65-1.94 1.54-2.88 2.69-.95 1.14-1.81 2.5-2.59 4.06-.78 1.56-1.36 3.25-1.73 5.08l-2.6 13.22c-.04.18-.12.32-.23.45-.11.13-.28.23-.49.31-.22.09-.51.15-.87.2-.36.04-.81.07-1.34.07-.55 0-1-.02-1.33-.07-.34-.04-.61-.11-.79-.2-.19-.09-.31-.19-.36-.31-.06-.12-.06-.27-.02-.45l5.9-29.71c.02-.15.09-.3.2-.43.11-.13.27-.24.49-.33.22-.09.49-.15.81-.18.32-.03.7-.05 1.14-.05.46 0 .84.02 1.14.05.3.03.53.09.69.18.17.09.27.2.31.33.04.13.05.28.03.43l-1.09 5.41c.51-.9 1.1-1.77 1.8-2.61.69-.83 1.45-1.57 2.26-2.19.81-.63 1.67-1.13 2.56-1.5.89-.37 1.76-.56 2.62-.56a9.743 9.743 0 0 1 2.21.28c.33.08.62.17.87.26.25.1.45.21.58.35.13.14.18.35.18.64zM750.37 466.67c-.04.18-.12.32-.23.45-.11.13-.28.23-.49.31-.22.09-.51.15-.87.2-.36.04-.81.07-1.34.07-.55 0-1-.02-1.33-.07-.34-.04-.61-.11-.79-.2-.19-.09-.31-.19-.36-.31-.06-.12-.06-.27-.02-.45l5.9-29.68c.02-.15.09-.3.2-.43.11-.13.27-.24.49-.33.22-.09.51-.15.87-.2.36-.04.82-.07 1.37-.07.53 0 .96.02 1.3.07.34.05.6.11.79.2.19.09.31.2.36.33.05.13.07.28.05.43l-5.9 29.68zm8.54-39.68c-.11.62-.26 1.13-.44 1.55-.19.42-.43.75-.74 1.01-.31.25-.69.43-1.15.54-.46.11-1.02.17-1.68.17-.64 0-1.17-.05-1.58-.17-.42-.11-.73-.29-.92-.54-.2-.25-.31-.59-.33-1.01-.02-.42.02-.93.13-1.55.13-.62.3-1.13.49-1.53.2-.41.45-.75.74-1.02.3-.27.68-.46 1.14-.56.46-.1 1.02-.15 1.68-.15.64 0 1.16.05 1.57.15.41.1.71.29.92.56.21.28.32.62.35 1.02.01.41-.05.92-.18 1.53zM789.41 443.552c0 .77-.04 1.529-.13 2.279s-.21 1.52-.36 2.31l-3.73 18.531c-.04.18-.12.32-.21.45s-.26.23-.5.31c-.23.09-.52.149-.87.199-.35.04-.8.07-1.35.07-.53 0-.96-.02-1.3-.07-.34-.05-.6-.109-.79-.199-.19-.09-.31-.19-.36-.31-.05-.12-.07-.27-.05-.45l3.66-18.331c.15-.68.26-1.339.31-1.979.05-.64.08-1.2.08-1.68 0-1.34-.29-2.42-.86-3.25-.57-.83-1.53-1.241-2.87-1.241-1.17 0-2.36.34-3.58 1.01-1.22.67-2.35 1.59-3.4 2.77-1.04 1.18-1.98 2.57-2.8 4.19a20.55 20.55 0 0 0-1.8 5.261l-2.64 13.26c-.04.18-.12.319-.23.449-.11.13-.28.23-.49.31-.22.09-.51.15-.87.2-.36.04-.81.07-1.34.07-.55 0-1-.02-1.33-.07-.34-.04-.61-.11-.79-.2-.19-.09-.31-.19-.36-.31-.06-.12-.06-.269-.02-.449l5.97-29.711a.9.9 0 0 1 .18-.429c.1-.13.25-.241.46-.331.21-.09.47-.15.79-.18.32-.03.7-.049 1.14-.049.46 0 .84.019 1.14.049.3.03.53.09.69.18.17.09.27.201.31.331.04.13.05.279.03.429l-1.12 5.67c.33-.75.87-1.54 1.62-2.37.75-.83 1.64-1.6 2.67-2.31 1.03-.7 2.17-1.29 3.41-1.75 1.24-.46 2.53-.69 3.88-.69 1.47 0 2.7.23 3.69.68.99.45 1.79 1.041 2.41 1.781.62.74 1.05 1.59 1.32 2.56.26.94.39 1.95.39 3.01zM819.29 469.012c-.35 1.76-.92 3.3-1.7 4.62-.78 1.32-1.78 2.41-2.98 3.28-1.21.87-2.64 1.52-4.3 1.96-1.66.44-3.54.66-5.66.66-1.83 0-3.49-.18-5-.54-1.51-.36-2.71-.8-3.61-1.3-.33-.22-.56-.43-.68-.64-.12-.21-.18-.48-.18-.81 0-.13 0-.32.02-.56.01-.24.04-.48.1-.72.05-.24.12-.5.2-.76.08-.26.18-.5.3-.71.12-.21.27-.37.45-.5s.36-.18.56-.18c.26 0 .59.12.99.35.4.23.92.49 1.58.78.66.29 1.48.55 2.46.79s2.18.36 3.61.36c1.19 0 2.26-.12 3.22-.36.96-.24 1.79-.6 2.51-1.09.71-.48 1.3-1.1 1.75-1.85.45-.75.79-1.64 1.01-2.67.37-2 .75-3.66 1.12-4.98.37-1.32.68-2.34.92-3.07-.35.81-.91 1.63-1.68 2.46-.77.83-1.66 1.58-2.67 2.28a14.45 14.45 0 0 1-3.33 1.68c-1.21.43-2.44.64-3.69.64-1.65 0-3.04-.28-4.19-.83-1.14-.55-2.06-1.3-2.75-2.26-.69-.96-1.19-2.09-1.5-3.4-.31-1.31-.46-2.72-.46-4.24 0-1.27.12-2.71.36-4.3.24-1.59.63-3.2 1.15-4.81.53-1.62 1.2-3.19 2.03-4.72.82-1.53 1.82-2.89 2.98-4.09 1.17-1.2 2.51-2.16 4.04-2.88 1.53-.73 3.26-1.09 5.19-1.09 1.96 0 3.63.4 5.03 1.19 1.4.79 2.64 1.88 3.74 3.26l.63-3c.09-.35.34-.6.76-.76.42-.15 1.07-.23 1.95-.23.44 0 .81.02 1.1.05.3.03.53.09.71.18.18.09.29.2.33.33.04.13.05.28.03.43l-6.45 32.05zm-.53-24.27c-1.03-1.52-2.15-2.65-3.35-3.41-1.2-.76-2.54-1.14-4.04-1.14-1.19 0-2.25.28-3.2.82-.95.55-1.79 1.28-2.52 2.19-.74.91-1.38 1.96-1.93 3.15s-1 2.4-1.34 3.64c-.34 1.24-.59 2.47-.76 3.69-.17 1.22-.25 2.33-.25 3.31 0 .95.08 1.81.25 2.61.17.79.43 1.47.79 2.03.36.56.83 1.01 1.42 1.34.58.33 1.29.49 2.13.49 1.21 0 2.42-.33 3.64-1.01 1.22-.67 2.36-1.6 3.41-2.79 1.05-1.19 1.99-2.59 2.8-4.2.81-1.62 1.42-3.38 1.81-5.29l1.14-5.43zM877.96 465.481c.07.48.08.87.05 1.17-.03.3-.15.52-.36.68-.21.15-.53.25-.97.3-.44.04-1.03.07-1.78.07-.48 0-.9-.02-1.25-.05-.35-.03-.62-.09-.81-.17a.893.893 0 0 1-.41-.31c-.09-.13-.14-.3-.17-.49l-1.58-10.39h-17.77l-5.57 10.29c-.11.22-.24.4-.38.54s-.34.26-.59.35c-.25.09-.58.15-.99.18-.41.03-.91.05-1.5.05-.66 0-1.19-.03-1.58-.08-.39-.05-.67-.16-.82-.31-.15-.15-.2-.38-.13-.68.07-.3.22-.69.46-1.17l22.23-39.64c.15-.24.32-.44.5-.59.17-.15.41-.27.69-.36.29-.09.65-.15 1.09-.18.44-.03.98-.05 1.62-.05.73 0 1.31.02 1.76.05.45.03.81.09 1.09.18.27.09.47.21.58.38.11.16.19.37.23.61l6.36 39.62zm-11.12-34.99h-.03l-11.54 21.27h14.77l-3.2-21.27zM910.24 439.591c0 .4-.04.8-.12 1.22-.08.42-.19.81-.35 1.17-.15.36-.34.67-.54.91-.21.24-.45.36-.71.36-.31 0-.63-.16-.96-.48-.33-.32-.76-.68-1.3-1.07-.54-.4-1.22-.76-2.04-1.09-.82-.33-1.87-.49-3.15-.49-1.41 0-2.65.29-3.74.87a9.781 9.781 0 0 0-2.84 2.28c-.8.93-1.47 2-2 3.18a25.35 25.35 0 0 0-1.29 3.59c-.33 1.21-.57 2.38-.71 3.51s-.21 2.12-.21 2.95c0 2.26.5 3.98 1.48 5.14.99 1.17 2.46 1.75 4.42 1.75 1.43 0 2.65-.18 3.68-.53 1.03-.35 1.89-.75 2.6-1.2.71-.45 1.3-.85 1.76-1.2.46-.35.87-.53 1.22-.53.18 0 .31.08.41.25.1.17.15.4.15.71 0 .26-.02.58-.07.94-.04.36-.12.74-.21 1.12-.1.38-.22.74-.36 1.07-.14.33-.35.63-.61.91s-.73.61-1.38 1.01c-.65.4-1.42.75-2.29 1.07-.87.32-1.81.58-2.82.79-1.01.21-2.06.31-3.13.31-3.54 0-6.18-.9-7.93-2.7-1.75-1.8-2.62-4.49-2.62-8.05 0-1.34.12-2.81.35-4.4.23-1.59.62-3.2 1.17-4.81.55-1.62 1.25-3.18 2.11-4.7.86-1.52 1.91-2.86 3.17-4.04 1.25-1.18 2.7-2.12 4.35-2.82 1.65-.7 3.54-1.06 5.67-1.06a14.926 14.926 0 0 1 4.83.79c.71.24 1.36.54 1.95.91.58.36 1.03.69 1.35.97.32.29.52.53.59.73.08.2.12.42.12.66zM939.85 466.67c-.04.18-.12.32-.23.45-.11.12-.28.23-.5.31-.22.09-.51.15-.87.2-.36.04-.81.07-1.33.07-.53 0-.97-.02-1.32-.07-.35-.05-.62-.11-.81-.2-.19-.09-.31-.19-.38-.31s-.08-.27-.03-.45l5.21-26.02h-15.33l-3.33 16.55c-.09.46-.17.98-.23 1.55-.07.57-.1 1.04-.1 1.42 0 1.12.24 1.94.71 2.46s1.24.78 2.29.78c.59 0 1.11-.05 1.55-.15.44-.1.82-.2 1.14-.31.32-.11.6-.21.84-.31s.45-.15.63-.15.31.06.41.18c.1.12.15.35.15.68 0 .29-.03.6-.08.94-.06.34-.13.68-.21 1.01-.09.33-.2.63-.33.89s-.28.47-.43.63c-.18.15-.44.31-.79.46-.35.15-.76.29-1.22.41a12.373 12.373 0 0 1-3 .38c-1.23 0-2.3-.13-3.2-.4-.9-.26-1.66-.68-2.28-1.24-.62-.56-1.07-1.26-1.37-2.11-.3-.85-.45-1.86-.45-3.05 0-.26.01-.55.03-.87.02-.32.06-.65.12-1.01s.11-.7.17-1.05c.06-.35.12-.68.18-.99l3.33-16.69h-4.12c-.24 0-.43-.07-.56-.21-.13-.14-.2-.42-.2-.84 0-.31.03-.66.1-1.07.07-.41.17-.79.3-1.14.13-.35.3-.65.51-.89.21-.24.46-.36.74-.36h4.16l1.42-7.06c.02-.15.09-.3.21-.43s.29-.25.51-.35c.22-.1.51-.17.87-.21.36-.04.81-.07 1.33-.07.53 0 .97.02 1.32.07.35.05.62.12.81.21.19.09.31.21.36.35.05.13.06.27.02.43l-1.42 7.06h19.09c.66 0 1.08.15 1.27.45.19.3.21.73.08 1.3l-5.74 28.77zm8.51-39.68c-.11.62-.26 1.13-.45 1.55-.19.42-.43.75-.74 1.01-.31.25-.69.43-1.14.54-.45.11-1 .17-1.67.17-.66 0-1.19-.05-1.6-.17-.41-.11-.7-.29-.89-.54-.19-.25-.29-.59-.31-1.01-.02-.42.02-.93.13-1.55s.26-1.13.45-1.53c.19-.41.44-.75.76-1.02s.7-.46 1.14-.56c.44-.1.99-.15 1.65-.15.66 0 1.19.05 1.6.15.41.1.71.29.91.56.2.28.31.62.33 1.02.02.41-.04.92-.17 1.53zM980.02 446.812c0 1.63-.15 3.29-.46 4.98-.31 1.69-.77 3.33-1.4 4.9-.63 1.57-1.42 3.05-2.39 4.44-.97 1.38-2.11 2.59-3.41 3.63a16.148 16.148 0 0 1-4.45 2.46c-1.66.61-3.51.91-5.56.91-2.11 0-3.92-.25-5.42-.76-1.51-.51-2.74-1.24-3.71-2.21-.97-.97-1.68-2.15-2.14-3.56-.46-1.41-.69-3-.69-4.78 0-1.63.15-3.29.45-4.98.3-1.69.76-3.32 1.4-4.88.64-1.56 1.43-3.04 2.39-4.44.96-1.4 2.09-2.61 3.4-3.64 1.31-1.03 2.79-1.85 4.45-2.46 1.66-.6 3.51-.91 5.56-.91 2.11 0 3.92.26 5.42.78s2.75 1.26 3.73 2.23 1.7 2.16 2.16 3.56c.44 1.39.67 2.97.67 4.73zm-5.74.33c0-1.1-.12-2.09-.35-2.97-.23-.88-.62-1.62-1.15-2.23-.54-.6-1.24-1.07-2.11-1.4-.87-.33-1.92-.5-3.15-.5-1.32 0-2.52.24-3.59.71a9.841 9.841 0 0 0-2.88 1.91c-.85.8-1.58 1.74-2.21 2.82-.63 1.08-1.14 2.23-1.55 3.45-.41 1.22-.71 2.47-.91 3.76-.2 1.29-.3 2.54-.3 3.78 0 1.1.12 2.09.36 2.97.24.88.63 1.63 1.17 2.24.54.62 1.24 1.09 2.09 1.42.85.33 1.9.49 3.13.49 1.34 0 2.54-.24 3.61-.71a9.923 9.923 0 0 0 2.87-1.93c.85-.81 1.58-1.76 2.21-2.84.63-1.08 1.14-2.23 1.55-3.46.41-1.23.71-2.48.91-3.76.2-1.26.3-2.52.3-3.75zM1013.59 443.552c0 .77-.04 1.529-.13 2.279s-.21 1.52-.36 2.31l-3.73 18.531c-.04.18-.12.32-.21.45s-.26.23-.5.31c-.23.09-.52.149-.87.199-.35.04-.8.07-1.35.07-.53 0-.96-.02-1.3-.07-.34-.05-.6-.109-.79-.199-.19-.09-.31-.19-.36-.31a.905.905 0 0 1-.05-.45l3.66-18.331c.15-.68.26-1.339.31-1.979.05-.64.08-1.2.08-1.68 0-1.34-.29-2.42-.86-3.25-.57-.83-1.53-1.241-2.87-1.241-1.17 0-2.36.34-3.58 1.01-1.22.67-2.35 1.59-3.4 2.77-1.04 1.18-1.98 2.57-2.8 4.19a20.55 20.55 0 0 0-1.8 5.261l-2.64 13.26c-.04.18-.12.319-.23.449-.11.13-.28.23-.49.31-.22.09-.51.15-.87.2-.36.04-.81.07-1.34.07-.55 0-1-.02-1.33-.07-.34-.04-.61-.11-.79-.2-.19-.09-.31-.19-.36-.31-.06-.12-.06-.269-.02-.449l5.97-29.711a.9.9 0 0 1 .18-.429c.1-.13.25-.241.46-.331.21-.09.47-.15.79-.18.32-.03.7-.049 1.14-.049.46 0 .84.019 1.14.049.3.03.53.09.69.18.17.09.27.201.31.331.04.13.05.279.03.429l-1.12 5.67c.33-.75.87-1.54 1.62-2.37.75-.83 1.64-1.6 2.67-2.31 1.03-.7 2.17-1.29 3.41-1.75 1.24-.46 2.53-.69 3.88-.69 1.47 0 2.7.23 3.69.68.99.45 1.79 1.041 2.41 1.781.62.74 1.05 1.59 1.32 2.56.26.94.39 1.95.39 3.01zM1043.96 466.67c-.09.37-.33.64-.72.79-.4.15-1.06.23-1.98.23-.44 0-.8-.02-1.09-.07-.29-.04-.52-.1-.69-.18-.18-.08-.3-.18-.36-.3-.07-.12-.07-.28 0-.48l1.09-5.61c-.29.7-.8 1.47-1.55 2.31-.75.84-1.63 1.61-2.65 2.31s-2.16 1.29-3.41 1.75c-1.25.46-2.53.69-3.83.69-1.76 0-3.21-.31-4.37-.92-1.16-.61-2.07-1.43-2.75-2.44a9.238 9.238 0 0 1-1.4-3.43c-.25-1.27-.38-2.58-.38-3.92 0-1.23.12-2.63.35-4.19.23-1.56.6-3.16 1.12-4.78.52-1.63 1.19-3.21 2.01-4.75.82-1.54 1.82-2.92 2.98-4.14a13.94 13.94 0 0 1 4.06-2.94c1.54-.74 3.29-1.1 5.24-1.1 1.95 0 3.63.4 5.03 1.19 1.4.79 2.64 1.88 3.74 3.26l.63-3c.09-.35.34-.6.76-.76.42-.15 1.07-.23 1.95-.23.44 0 .81.02 1.1.05.3.03.53.09.71.18.18.09.29.2.33.33.04.13.05.28.03.43l-5.95 29.72zm-1.02-21.93c-1.03-1.52-2.15-2.65-3.35-3.41-1.2-.76-2.54-1.14-4.04-1.14-1.19 0-2.26.28-3.22.84-.96.56-1.8 1.3-2.54 2.23-.74.92-1.37 1.97-1.91 3.15-.54 1.18-.98 2.39-1.32 3.64-.34 1.25-.59 2.48-.76 3.69-.17 1.21-.25 2.3-.25 3.26 0 .77.06 1.53.18 2.29s.35 1.45.69 2.08c.34.63.81 1.13 1.4 1.52.59.39 1.36.58 2.31.58 1.21 0 2.42-.33 3.64-1.01 1.22-.67 2.36-1.6 3.41-2.79 1.05-1.19 1.99-2.58 2.8-4.19.81-1.61 1.42-3.38 1.81-5.31l1.15-5.43zM1084.09 446.251c0 1.32-.12 2.78-.36 4.37-.24 1.59-.63 3.2-1.17 4.81a30.11 30.11 0 0 1-2.03 4.72 17.37 17.37 0 0 1-2.98 4.06 14.277 14.277 0 0 1-4.06 2.84c-1.53.71-3.25 1.07-5.16 1.07-1.98 0-3.67-.37-5.08-1.12-1.41-.75-2.66-1.82-3.76-3.23l-.59 2.9c-.04.37-.28.64-.71.79-.43.15-1.08.23-1.96.23-.92 0-1.54-.09-1.85-.26-.31-.17-.42-.43-.33-.76l8.77-44.06c.04-.18.12-.33.21-.46.1-.13.26-.24.49-.33.23-.09.53-.15.89-.2.36-.04.82-.07 1.37-.07.53 0 .96.02 1.29.07.33.05.59.11.79.2.2.09.32.2.36.33.04.13.05.29.03.46l-2.64 13.26c-.11.57-.24 1.17-.4 1.78-.15.62-.31 1.23-.48 1.83-.17.61-.33 1.18-.5 1.71-.17.54-.31 1.01-.45 1.4.35-.77.91-1.57 1.67-2.39.76-.82 1.65-1.58 2.67-2.28 1.02-.69 2.14-1.27 3.35-1.73 1.21-.46 2.43-.69 3.66-.69 1.32 0 2.45.18 3.4.53.95.35 1.75.82 2.41 1.4a7.31 7.31 0 0 1 1.6 2c.41.75.72 1.52.94 2.31.22.79.37 1.58.46 2.36.09.78.15 1.49.15 2.15zm-5.7.46c0-.59-.06-1.27-.17-2.04-.11-.77-.33-1.48-.64-2.14-.32-.66-.78-1.21-1.38-1.67-.6-.45-1.41-.68-2.42-.68-1.19 0-2.4.34-3.63 1.02-1.23.68-2.38 1.62-3.43 2.82-1.06 1.2-2 2.61-2.82 4.22-.83 1.62-1.42 3.38-1.8 5.29l-1.09 5.47c1.03 1.52 2.14 2.64 3.33 3.36 1.19.73 2.53 1.09 4.02 1.09 1.14 0 2.18-.26 3.1-.79.92-.53 1.76-1.23 2.51-2.11.75-.88 1.4-1.88 1.95-3.02.55-1.13 1.01-2.32 1.37-3.56.36-1.24.64-2.49.82-3.74.18-1.24.28-2.42.28-3.52zM1094.21 466.671c-.04.18-.12.32-.23.45-.11.13-.28.23-.49.31-.22.09-.51.15-.87.2-.36.04-.81.07-1.34.07-.55 0-1-.02-1.33-.07-.34-.04-.61-.11-.79-.2-.19-.09-.31-.19-.36-.31-.06-.12-.06-.27-.02-.45l8.77-44.06c.04-.18.12-.33.21-.46.1-.13.26-.24.49-.33.23-.09.53-.15.89-.2.36-.04.82-.07 1.37-.07.53 0 .96.02 1.3.07.34.05.6.11.79.2.19.09.3.2.35.33.05.13.05.29.03.46l-8.77 44.06zM1132.63 443.05c0 1.52-.35 2.88-1.05 4.09-.7 1.21-1.8 2.24-3.3 3.1-1.5.86-3.41 1.52-5.74 1.98-2.33.46-5.12.69-8.38.69h-3.5c-.15.73-.26 1.43-.31 2.11-.05.68-.08 1.32-.08 1.91 0 2.2.54 3.88 1.63 5.05 1.09 1.17 2.85 1.75 5.29 1.75 1.41 0 2.67-.1 3.79-.31s2.09-.43 2.92-.68c.82-.24 1.5-.47 2.03-.68.53-.21.89-.31 1.09-.31.2 0 .35.07.45.21.1.14.15.35.15.61 0 .22-.02.48-.07.79-.04.31-.11.62-.2.94-.09.32-.2.62-.35.91-.14.29-.3.53-.48.73-.26.26-.73.52-1.4.77-.67.25-1.47.48-2.39.69-.92.21-1.93.38-3.03.51-1.1.13-2.2.2-3.3.2-1.96 0-3.67-.22-5.14-.66-1.47-.44-2.7-1.12-3.68-2.03-.98-.91-1.71-2.05-2.19-3.41-.48-1.36-.73-2.97-.73-4.82 0-1.43.14-2.96.41-4.6.27-1.64.71-3.26 1.3-4.86.59-1.6 1.36-3.14 2.31-4.62.94-1.47 2.07-2.77 3.38-3.89s2.82-2.02 4.53-2.7c1.71-.68 3.65-1.02 5.8-1.02 1.85 0 3.41.23 4.7.69 1.29.46 2.34 1.06 3.17 1.78.83.72 1.42 1.53 1.8 2.42.38.89.57 1.78.57 2.66zm-5.57.5c0-1.12-.44-2.03-1.32-2.72-.88-.69-2.13-1.04-3.76-1.04-1.43 0-2.69.25-3.79.74a9.79 9.79 0 0 0-2.92 2c-.85.84-1.57 1.81-2.18 2.92-.61 1.11-1.09 2.28-1.47 3.51h3.36c2.31 0 4.24-.14 5.79-.43 1.55-.29 2.79-.68 3.73-1.17.93-.5 1.59-1.07 1.98-1.73.39-.66.58-1.36.58-2.08zM1158.09 466.671c-.02.15-.09.3-.21.43s-.3.24-.54.31c-.24.08-.55.14-.92.2s-.82.08-1.35.08c-.57 0-1.03-.03-1.38-.08-.35-.05-.63-.12-.83-.2-.2-.08-.33-.18-.4-.31a.53.53 0 0 1-.03-.43l8.18-41.02c.02-.15.1-.3.25-.43.14-.13.33-.24.58-.31.25-.07.54-.14.91-.2.36-.05.81-.08 1.33-.08.53 0 .97.03 1.32.08.35.06.63.12.84.2.21.08.35.18.41.31.07.13.08.27.03.43l-8.19 41.02zM1197.79 443.552c0 .77-.04 1.529-.13 2.279s-.21 1.52-.36 2.31l-3.73 18.531c-.04.18-.12.32-.21.45s-.26.23-.5.31c-.23.09-.52.149-.87.199-.35.04-.8.07-1.35.07-.53 0-.96-.02-1.3-.07-.34-.05-.6-.109-.79-.199-.19-.09-.31-.19-.36-.31a.905.905 0 0 1-.05-.45l3.66-18.331c.15-.68.26-1.339.31-1.979.05-.64.08-1.2.08-1.68 0-1.34-.29-2.42-.86-3.25-.57-.83-1.53-1.241-2.87-1.241-1.17 0-2.36.34-3.58 1.01-1.22.67-2.35 1.59-3.4 2.77-1.04 1.18-1.98 2.57-2.8 4.19a20.55 20.55 0 0 0-1.8 5.261l-2.64 13.26c-.04.18-.12.319-.23.449-.11.13-.28.23-.49.31-.22.09-.51.15-.87.2-.36.04-.81.07-1.34.07-.55 0-1-.02-1.33-.07-.34-.04-.61-.11-.79-.2-.19-.09-.31-.19-.36-.31-.06-.12-.06-.269-.02-.449l5.97-29.711a.9.9 0 0 1 .18-.429c.1-.13.25-.241.46-.331.21-.09.47-.15.79-.18.32-.03.7-.049 1.14-.049.46 0 .84.019 1.14.049.3.03.53.09.69.18.17.09.27.201.31.331.04.13.05.279.03.429l-1.12 5.67c.33-.75.87-1.54 1.62-2.37.75-.83 1.64-1.6 2.67-2.31 1.03-.7 2.17-1.29 3.41-1.75 1.24-.46 2.53-.69 3.88-.69 1.47 0 2.7.23 3.69.68.99.45 1.79 1.041 2.41 1.781.62.74 1.05 1.59 1.32 2.56.26.94.39 1.95.39 3.01zM1224.11 437.321c0 .2-.01.41-.03.64-.02.23-.07.47-.13.71-.07.24-.15.48-.26.73-.11.25-.23.46-.35.64-.12.19-.26.34-.41.45-.15.11-.33.17-.53.17h-7.58l-3.33 16.55c-.09.46-.17.98-.23 1.55-.07.57-.1 1.04-.1 1.42 0 1.12.24 1.94.71 2.46s1.24.78 2.29.78c.59 0 1.11-.05 1.55-.15.44-.1.82-.2 1.14-.31.32-.11.6-.21.84-.31s.45-.15.63-.15.31.06.41.18c.1.12.15.35.15.68 0 .29-.03.6-.08.94-.06.34-.13.68-.21 1.01-.09.33-.2.63-.33.89s-.28.47-.43.63c-.18.15-.44.31-.79.46-.35.15-.76.29-1.22.41a12.373 12.373 0 0 1-3 .38c-1.23 0-2.3-.13-3.2-.4-.9-.26-1.66-.68-2.28-1.24-.62-.56-1.07-1.26-1.37-2.11-.3-.85-.45-1.86-.45-3.05 0-.26.01-.55.03-.87.02-.32.06-.65.12-1.01s.11-.7.17-1.05c.06-.35.12-.68.18-.99l3.33-16.69h-4.12c-.24 0-.43-.07-.56-.21-.13-.14-.2-.42-.2-.84 0-.31.03-.66.1-1.07.07-.41.17-.79.3-1.14.13-.35.3-.65.51-.89.21-.24.46-.36.74-.36h4.16l1.42-7.06c.02-.15.09-.3.21-.43s.29-.25.51-.35c.22-.1.51-.17.87-.21.36-.04.81-.07 1.33-.07.53 0 .96.02 1.3.07.34.05.6.12.79.21.19.09.31.21.36.35.05.13.07.27.05.43l-1.42 7.06h7.58c.33 0 .55.12.66.36.11.21.17.49.17.8zM1253.13 443.05c0 1.52-.35 2.88-1.05 4.09-.7 1.21-1.8 2.24-3.3 3.1-1.5.86-3.41 1.52-5.74 1.98-2.33.46-5.12.69-8.38.69h-3.5c-.15.73-.26 1.43-.31 2.11-.05.68-.08 1.32-.08 1.91 0 2.2.54 3.88 1.63 5.05 1.09 1.17 2.85 1.75 5.29 1.75 1.41 0 2.67-.1 3.79-.31s2.09-.43 2.92-.68c.82-.24 1.5-.47 2.03-.68.53-.21.89-.31 1.09-.31.2 0 .35.07.45.21.1.14.15.35.15.61 0 .22-.02.48-.07.79-.04.31-.11.62-.2.94-.09.32-.2.62-.35.91-.14.29-.3.53-.48.73-.26.26-.73.52-1.4.77-.67.25-1.47.48-2.39.69-.92.21-1.93.38-3.03.51-1.1.13-2.2.2-3.3.2-1.96 0-3.67-.22-5.14-.66-1.47-.44-2.7-1.12-3.68-2.03-.98-.91-1.71-2.05-2.19-3.41-.48-1.36-.73-2.97-.73-4.82 0-1.43.14-2.96.41-4.6.27-1.64.71-3.26 1.3-4.86.59-1.6 1.36-3.14 2.31-4.62.94-1.47 2.07-2.77 3.38-3.89s2.82-2.02 4.53-2.7c1.71-.68 3.65-1.02 5.8-1.02 1.85 0 3.41.23 4.7.69 1.29.46 2.34 1.06 3.17 1.78.83.72 1.42 1.53 1.8 2.42.38.89.57 1.78.57 2.66zm-5.58.5c0-1.12-.44-2.03-1.32-2.72-.88-.69-2.13-1.04-3.76-1.04-1.43 0-2.69.25-3.79.74a9.79 9.79 0 0 0-2.92 2c-.85.84-1.57 1.81-2.18 2.92-.61 1.11-1.09 2.28-1.47 3.51h3.36c2.31 0 4.24-.14 5.79-.43 1.55-.29 2.79-.68 3.73-1.17.93-.5 1.59-1.07 1.98-1.73.39-.66.58-1.36.58-2.08zM1262.46 466.671c-.04.18-.12.32-.23.45-.11.13-.28.23-.49.31-.22.09-.51.15-.87.2-.36.04-.81.07-1.34.07-.55 0-1-.02-1.33-.07-.34-.04-.61-.11-.79-.2-.19-.09-.31-.19-.36-.31-.06-.12-.06-.27-.02-.45l8.77-44.06c.04-.18.12-.33.21-.46.1-.13.26-.24.49-.33.23-.09.53-.15.89-.2.36-.04.82-.07 1.37-.07.53 0 .96.02 1.3.07.34.05.6.11.79.2.19.09.3.2.35.33.05.13.05.29.03.46l-8.77 44.06zM1277.96 466.671c-.04.18-.12.32-.23.45-.11.13-.28.23-.49.31-.22.09-.51.15-.87.2-.36.04-.81.07-1.34.07-.55 0-1-.02-1.33-.07-.34-.04-.61-.11-.79-.2-.19-.09-.31-.19-.36-.31-.06-.12-.06-.27-.02-.45l8.77-44.06c.04-.18.12-.33.21-.46.1-.13.26-.24.49-.33.23-.09.53-.15.89-.2.36-.04.82-.07 1.37-.07.53 0 .96.02 1.3.07.34.05.6.11.79.2.19.09.3.2.35.33.05.13.05.29.03.46l-8.77 44.06zM1293.46 466.67c-.04.18-.12.32-.23.45-.11.13-.28.23-.49.31-.22.09-.51.15-.87.2-.36.04-.81.07-1.34.07-.55 0-1-.02-1.33-.07-.34-.04-.61-.11-.79-.2-.19-.09-.31-.19-.36-.31-.06-.12-.06-.27-.02-.45l5.9-29.68c.02-.15.09-.3.2-.43.11-.13.27-.24.49-.33.22-.09.51-.15.87-.2.36-.04.82-.07 1.37-.07.53 0 .96.02 1.3.07.34.05.6.11.79.2.19.09.31.2.36.33.05.13.07.28.05.43l-5.9 29.68zm8.54-39.68c-.11.62-.26 1.13-.44 1.55-.19.42-.43.75-.74 1.01-.31.25-.69.43-1.15.54-.46.11-1.02.17-1.68.17-.64 0-1.17-.05-1.58-.17-.42-.11-.73-.29-.92-.54-.2-.25-.31-.59-.33-1.01-.02-.42.02-.93.13-1.55.13-.62.3-1.13.49-1.53.2-.41.45-.75.74-1.02.3-.27.68-.46 1.14-.56.46-.1 1.02-.15 1.68-.15.64 0 1.16.05 1.57.15.41.1.71.29.92.56.21.28.32.62.35 1.02 0 .41-.05.92-.18 1.53zM1327.65 469.012c-.35 1.76-.92 3.3-1.7 4.62-.78 1.32-1.78 2.41-2.98 3.28-1.21.87-2.64 1.52-4.3 1.96-1.66.44-3.54.66-5.66.66-1.83 0-3.49-.18-5-.54-1.51-.36-2.71-.8-3.61-1.3-.33-.22-.56-.43-.68-.64-.12-.21-.18-.48-.18-.81 0-.13 0-.32.02-.56.01-.24.04-.48.1-.72.05-.24.12-.5.2-.76.08-.26.18-.5.3-.71.12-.21.27-.37.45-.5s.36-.18.56-.18c.26 0 .59.12.99.35.4.23.92.49 1.58.78.66.29 1.48.55 2.46.79s2.18.36 3.61.36c1.19 0 2.26-.12 3.22-.36.96-.24 1.79-.6 2.51-1.09.71-.48 1.3-1.1 1.75-1.85.45-.75.79-1.64 1.01-2.67.37-2 .75-3.66 1.12-4.98.37-1.32.68-2.34.92-3.07-.35.81-.91 1.63-1.68 2.46-.77.83-1.66 1.58-2.67 2.28a14.45 14.45 0 0 1-3.33 1.68c-1.21.43-2.44.64-3.69.64-1.65 0-3.04-.28-4.19-.83-1.14-.55-2.06-1.3-2.75-2.26-.69-.96-1.19-2.09-1.5-3.4-.31-1.31-.46-2.72-.46-4.24 0-1.27.12-2.71.36-4.3.24-1.59.63-3.2 1.15-4.81.53-1.62 1.2-3.19 2.03-4.72.82-1.53 1.82-2.89 2.98-4.09 1.17-1.2 2.51-2.16 4.04-2.88 1.53-.73 3.26-1.09 5.19-1.09 1.96 0 3.63.4 5.03 1.19 1.4.79 2.64 1.88 3.74 3.26l.63-3c.09-.35.34-.6.76-.76.42-.15 1.07-.23 1.95-.23.44 0 .81.02 1.1.05.3.03.53.09.71.18.18.09.29.2.33.33.04.13.05.28.03.43l-6.45 32.05zm-.52-24.27c-1.03-1.52-2.15-2.65-3.35-3.41-1.2-.76-2.54-1.14-4.04-1.14-1.19 0-2.25.28-3.2.82-.95.55-1.79 1.28-2.52 2.19-.74.91-1.38 1.96-1.93 3.15s-1 2.4-1.34 3.64c-.34 1.24-.59 2.47-.76 3.69-.17 1.22-.25 2.33-.25 3.31 0 .95.08 1.81.25 2.61.17.79.43 1.47.79 2.03.36.56.83 1.01 1.42 1.34.58.33 1.29.49 2.13.49 1.21 0 2.42-.33 3.64-1.01 1.22-.67 2.36-1.6 3.41-2.79 1.05-1.19 1.99-2.59 2.8-4.2.81-1.62 1.42-3.38 1.81-5.29l1.14-5.43zM1366.6 443.05c0 1.52-.35 2.88-1.05 4.09-.7 1.21-1.8 2.24-3.3 3.1-1.5.86-3.41 1.52-5.74 1.98-2.33.46-5.12.69-8.38.69h-3.5c-.15.73-.26 1.43-.31 2.11-.05.68-.08 1.32-.08 1.91 0 2.2.54 3.88 1.63 5.05 1.09 1.17 2.85 1.75 5.29 1.75 1.41 0 2.67-.1 3.79-.31s2.09-.43 2.92-.68c.82-.24 1.5-.47 2.03-.68.53-.21.89-.31 1.09-.31.2 0 .35.07.45.21.1.14.15.35.15.61 0 .22-.02.48-.07.79-.04.31-.11.62-.2.94-.09.32-.2.62-.35.91-.14.29-.3.53-.48.73-.26.26-.73.52-1.4.77-.67.25-1.47.48-2.39.69-.92.21-1.93.38-3.03.51-1.1.13-2.2.2-3.3.2-1.96 0-3.67-.22-5.14-.66-1.47-.44-2.7-1.12-3.68-2.03-.98-.91-1.71-2.05-2.19-3.41-.48-1.36-.73-2.97-.73-4.82 0-1.43.14-2.96.41-4.6.27-1.64.71-3.26 1.3-4.86.59-1.6 1.36-3.14 2.31-4.62.94-1.47 2.07-2.77 3.38-3.89s2.82-2.02 4.53-2.7c1.71-.68 3.65-1.02 5.8-1.02 1.85 0 3.41.23 4.7.69 1.29.46 2.34 1.06 3.17 1.78.83.72 1.42 1.53 1.8 2.42.38.89.57 1.78.57 2.66zm-5.57.5c0-1.12-.44-2.03-1.32-2.72-.88-.69-2.13-1.04-3.76-1.04-1.43 0-2.69.25-3.79.74a9.79 9.79 0 0 0-2.92 2c-.85.84-1.57 1.81-2.18 2.92-.61 1.11-1.09 2.28-1.47 3.51h3.36c2.31 0 4.24-.14 5.79-.43 1.55-.29 2.79-.68 3.73-1.17.93-.5 1.59-1.07 1.98-1.73.39-.66.58-1.36.58-2.08zM1399.48 443.552c0 .77-.04 1.529-.13 2.279s-.21 1.52-.36 2.31l-3.73 18.531c-.04.18-.12.32-.21.45s-.26.23-.5.31c-.23.09-.52.149-.87.199-.35.04-.8.07-1.35.07-.53 0-.96-.02-1.3-.07-.34-.05-.6-.109-.79-.199-.19-.09-.31-.19-.36-.31a.905.905 0 0 1-.05-.45l3.66-18.331c.15-.68.26-1.339.31-1.979.05-.64.08-1.2.08-1.68 0-1.34-.29-2.42-.86-3.25-.57-.83-1.53-1.241-2.87-1.241-1.17 0-2.36.34-3.58 1.01-1.22.67-2.35 1.59-3.4 2.77-1.04 1.18-1.98 2.57-2.8 4.19a20.55 20.55 0 0 0-1.8 5.261l-2.64 13.26c-.04.18-.12.319-.23.449-.11.13-.28.23-.49.31-.22.09-.51.15-.87.2-.36.04-.81.07-1.34.07-.55 0-1-.02-1.33-.07-.34-.04-.61-.11-.79-.2-.19-.09-.31-.19-.36-.31-.06-.12-.06-.269-.02-.449l5.97-29.711a.9.9 0 0 1 .18-.429c.1-.13.25-.241.46-.331.21-.09.47-.15.79-.18.32-.03.7-.049 1.14-.049.46 0 .84.019 1.14.049.3.03.53.09.69.18.17.09.27.201.31.331.04.13.05.279.03.429l-1.12 5.67c.33-.75.87-1.54 1.62-2.37.75-.83 1.64-1.6 2.67-2.31 1.03-.7 2.17-1.29 3.41-1.75 1.24-.46 2.53-.69 3.88-.69 1.47 0 2.7.23 3.69.68.99.45 1.79 1.041 2.41 1.781.62.74 1.05 1.59 1.32 2.56.25.94.39 1.95.39 3.01zM1431.23 439.591c0 .4-.04.8-.12 1.22-.08.42-.19.81-.35 1.17-.15.36-.34.67-.54.91-.21.24-.45.36-.71.36-.31 0-.63-.16-.96-.48-.33-.32-.76-.68-1.3-1.07-.54-.4-1.22-.76-2.04-1.09-.82-.33-1.87-.49-3.15-.49-1.41 0-2.65.29-3.74.87a9.781 9.781 0 0 0-2.84 2.28c-.8.93-1.47 2-2 3.18a25.35 25.35 0 0 0-1.29 3.59c-.33 1.21-.57 2.38-.71 3.51s-.21 2.12-.21 2.95c0 2.26.5 3.98 1.48 5.14.99 1.17 2.46 1.75 4.42 1.75 1.43 0 2.65-.18 3.68-.53 1.03-.35 1.89-.75 2.6-1.2.71-.45 1.3-.85 1.76-1.2.46-.35.87-.53 1.22-.53.18 0 .31.08.41.25.1.17.15.4.15.71 0 .26-.02.58-.07.94-.04.36-.12.74-.21 1.12-.1.38-.22.74-.36 1.07-.14.33-.35.63-.61.91s-.73.61-1.38 1.01c-.65.4-1.42.75-2.29 1.07-.87.32-1.81.58-2.82.79-1.01.21-2.06.31-3.13.31-3.54 0-6.18-.9-7.93-2.7-1.75-1.8-2.62-4.49-2.62-8.05 0-1.34.12-2.81.35-4.4.23-1.59.62-3.2 1.17-4.81.55-1.62 1.25-3.18 2.11-4.7.86-1.52 1.91-2.86 3.17-4.04 1.25-1.18 2.7-2.12 4.35-2.82 1.65-.7 3.54-1.06 5.67-1.06a14.926 14.926 0 0 1 4.83.79c.71.24 1.36.54 1.95.91.58.36 1.03.69 1.35.97.32.29.52.53.59.73.08.2.12.42.12.66zM1461.24 443.05c0 1.52-.35 2.88-1.05 4.09-.7 1.21-1.8 2.24-3.3 3.1-1.5.86-3.41 1.52-5.74 1.98-2.33.46-5.12.69-8.38.69h-3.5c-.15.73-.26 1.43-.31 2.11-.05.68-.08 1.32-.08 1.91 0 2.2.54 3.88 1.63 5.05 1.09 1.17 2.85 1.75 5.29 1.75 1.41 0 2.67-.1 3.79-.31s2.09-.43 2.92-.68c.82-.24 1.5-.47 2.03-.68.53-.21.89-.31 1.09-.31.2 0 .35.07.45.21.1.14.15.35.15.61 0 .22-.02.48-.07.79-.04.31-.11.62-.2.94-.09.32-.2.62-.35.91-.14.29-.3.53-.48.73-.26.26-.73.52-1.4.77-.67.25-1.47.48-2.39.69-.92.21-1.93.38-3.03.51-1.1.13-2.2.2-3.3.2-1.96 0-3.67-.22-5.14-.66-1.47-.44-2.7-1.12-3.68-2.03-.98-.91-1.71-2.05-2.19-3.41-.48-1.36-.73-2.97-.73-4.82 0-1.43.14-2.96.41-4.6.27-1.64.71-3.26 1.3-4.86.59-1.6 1.36-3.14 2.31-4.62.94-1.47 2.07-2.77 3.38-3.89s2.82-2.02 4.53-2.7c1.71-.68 3.65-1.02 5.8-1.02 1.85 0 3.41.23 4.7.69 1.29.46 2.34 1.06 3.17 1.78.83.72 1.42 1.53 1.8 2.42.38.89.57 1.78.57 2.66zm-5.57.5c0-1.12-.44-2.03-1.32-2.72-.88-.69-2.13-1.04-3.76-1.04-1.43 0-2.69.25-3.79.74a9.79 9.79 0 0 0-2.92 2c-.85.84-1.57 1.81-2.18 2.92-.61 1.11-1.09 2.28-1.47 3.51h3.36c2.31 0 4.24-.14 5.79-.43 1.55-.29 2.79-.68 3.73-1.17.93-.5 1.59-1.07 1.98-1.73.39-.66.58-1.36.58-2.08z"/></g><path d="M483.91 235.37c0-34.54 7.25-60.6 21.76-78.18 14.51-17.58 32.87-26.38 55.11-26.38 21.85 0 40.13 8.79 54.82 26.38 14.69 17.59 22.04 42.95 22.04 76.11 0 35.92-7.22 62.67-21.67 80.26-14.44 17.59-32.85 26.38-55.2 26.38-21.98 0-40.29-8.82-54.92-26.47-14.62-17.65-21.94-43.68-21.94-78.1zm28.45-.09c0 25.9 4.71 45.18 14.13 57.81 9.42 12.64 21.1 18.96 35.04 18.96 13.06 0 24.27-6.38 33.63-19.15 9.35-12.76 14.04-31.97 14.04-57.63 0-25.78-4.71-44.98-14.13-57.63-9.42-12.64-21.1-18.96-35.04-18.96-13.19 0-24.43 6.35-33.72 19.05-9.3 12.72-13.95 31.9-13.95 57.55zM695.86 335.41h-25.81V59.22h27.88v98.53c5.9-9.04 12.59-15.79 20.06-20.25 7.47-4.46 15.79-6.69 24.96-6.69 12.81 0 24.46 3.83 34.95 11.49 10.49 7.66 18.87 19.28 25.15 34.85 6.28 15.57 9.42 34.48 9.42 56.71 0 33.91-7.11 60.07-21.32 78.47-14.22 18.4-30.82 27.6-49.82 27.6-9.56 0-18.15-2.48-25.76-7.44-7.61-4.96-14.19-12.34-19.72-22.14v25.06h.01zm-.42-101.54c0 20.72 1.89 36.24 5.67 46.53 3.78 10.3 9.13 18.15 16.05 23.55 6.92 5.4 14.61 8.1 23.04 8.1 11.46 0 21.62-6.44 30.5-19.31 8.88-12.87 13.32-32.12 13.32-57.74 0-26.25-4.28-45.53-12.84-57.84-8.56-12.31-19.08-18.46-31.54-18.46-11.46 0-21.69 6.44-30.69 19.31-9.01 12.87-13.51 31.49-13.51 55.86zM846.39 102.74v-39h27.69v39h-27.69zm0 237.19V139.86h27.69v200.07h-27.69zM1024.04 262.12l27.32 4.33c-3.14 23.86-11.02 42.08-23.64 54.63-12.62 12.56-27.79 18.84-45.5 18.84-21.48 0-39.16-8.82-53.03-26.47-13.88-17.64-20.82-43.74-20.82-78.28 0-34.79 7-60.88 21.01-78.28 14-17.39 31.99-26.09 53.97-26.09 16.96 0 31.24 5.28 42.86 15.82 11.62 10.55 19.06 26.38 22.32 47.48l-26.94 4.9c-2.64-13.5-7.22-23.6-13.75-30.29-6.53-6.69-14.38-10.03-23.55-10.03-13.69 0-25.03 6.06-34.01 18.18-8.98 12.12-13.47 31.37-13.47 57.74 0 27.26 4.3 46.98 12.91 59.16 8.6 12.18 19.62 18.28 33.06 18.28 10.55 0 19.56-4.05 27.03-12.15 7.48-8.09 12.22-20.68 14.23-37.77zM1182.29 335.41v-29.39c-6.41 11.3-13.94 19.78-22.61 25.43-8.67 5.65-18.46 8.48-29.39 8.48-12.94 0-23.99-3.49-33.16-10.46-9.17-6.97-15.29-15.79-18.37-26.47-3.08-10.67-4.62-25.25-4.62-43.71V135.33h27.69v110.96c0 20.6 1.04 34.38 3.11 41.35 2.07 6.97 5.9 12.56 11.49 16.77 5.59 4.21 11.96 6.31 19.12 6.31 13.31 0 24.24-5.46 32.78-16.39 7.28-9.42 10.93-26.69 10.93-51.81v-107.2h27.88v200.07h-24.85v.02zM1249.93 339.93V63.75h27.69v276.19h-27.69v-.01zM1433.23 270.98l28.64 4.33c-4.77 21.35-13.41 37.46-25.9 48.32-12.5 10.86-27.98 16.3-46.44 16.3-23.24 0-42.04-8.82-56.42-26.47-14.38-17.64-21.57-43.11-21.57-76.39 0-34.54 7.25-60.88 21.76-79.03 14.51-18.15 32.87-27.22 55.11-27.22 21.22 0 38.93 8.92 53.13 26.75 14.19 17.84 21.29 43.65 21.29 77.43l-.19 9.04h-122.46c1.13 22.48 6.34 39.44 15.64 50.87 9.29 11.43 20.6 17.14 33.91 17.14 20.83 0 35.34-13.69 43.5-41.07zm-91.37-54.82h91.56c-1.26-17.33-4.96-30.27-11.12-38.81-8.92-12.43-20.29-18.65-34.1-18.65-12.43 0-23.05 5.18-31.84 15.54-8.78 10.36-13.62 24.33-14.5 41.92zM235.25 470.74C105.15 470.73-.02 365.3 0 234.89.02 105.07 105.62-.05 235.97 0c129.88.05 234.87 105.75 234.77 236.33C470.63 365.6 365 470.74 235.25 470.74zm216.29-235.37c0-119.26-96.9-216.16-216.18-216.17-119.26-.01-216.19 96.93-216.17 216.18.02 119.29 96.86 216.12 216.18 216.17 119.22.04 216.17-96.91 216.17-216.18z" fill="#fff"/><path d="M391.16 130.21c-24 1.59-38.46 16.21-49.9 35.6-.42-1.12-.77-1.96-1.06-2.81-8.08-23.55-27.31-34.21-50.31-32.54-20.35 1.47-34.68 12.51-45.14 29.35-.51.82-1 1.64-1.51 2.46-.03.04-.13.03-.46.09v-27.25h-25.51v205.28h28.32v-3.08c.05-37.74-.03-75.48.21-113.22.08-12.7 1.44-25.34 5.78-37.42 4.73-13.17 13.43-22.28 27.45-25.47 5.22-1.19 10.54-1.37 15.77-.1 8.67 2.11 14.51 7.62 17.87 15.76 3.24 7.83 4.3 16.14 4.32 24.51.13 39.67.1 79.33.12 119v19.96h28.46v-3.05c.01-39.27-.03-78.53.07-117.8.03-11.19 1.05-22.32 5.19-32.87 5.05-12.86 13.71-21.99 27.53-25.27 17.64-4.18 32.88 4.73 37.82 22.15 6.83 24.06 8.92 48.54 5.98 73.41-9.18 77.67-64.19 141.25-139.88 160.58-104.36 26.64-205.83-38.09-229.82-138.29C29.83 184.59 82.9 88.52 175.01 57.24c25.12-8.53 50.94-11.76 77.34-9.08 57.82 5.86 103.46 32.85 137.42 79.84.45.62.82 1.29 1.39 2.21zM1429.53 102.449v-26.38h11.69c2.35 0 4.14.24 5.36.71 1.22.47 2.2 1.31 2.94 2.51.73 1.2 1.09 2.53 1.09 3.98 0 1.87-.6 3.44-1.82 4.73-1.21 1.29-3.08 2.1-5.61 2.45.92.44 1.63.88 2.11 1.32 1.02.93 1.98 2.11 2.9 3.51l4.59 7.18h-4.39l-3.49-5.49c-1.02-1.58-1.86-2.8-2.52-3.63-.66-.84-1.25-1.43-1.77-1.76a5.09 5.09 0 0 0-1.59-.71c-.4-.08-1.04-.12-1.95-.12h-4.05v11.71h-3.49v-.01zm3.49-14.74h7.51c1.59 0 2.84-.17 3.74-.5.9-.33 1.58-.86 2.05-1.58.47-.72.7-1.51.7-2.36 0-1.25-.45-2.27-1.36-3.08-.91-.8-2.33-1.2-4.3-1.2h-8.35v8.72h.01z" fill="#fff"/><path d="M1441.15 112.63c-12.88 0-23.36-10.48-23.36-23.37 0-12.88 10.48-23.37 23.36-23.37 12.89 0 23.37 10.48 23.37 23.37 0 12.88-10.48 23.37-23.37 23.37zm0-45.23c-12.05 0-21.86 9.81-21.86 21.86 0 12.06 9.8 21.86 21.86 21.86 12.06 0 21.86-9.81 21.86-21.86.01-12.06-9.8-21.86-21.86-21.86z" fill="#fff"/></svg>